G04 EasyPC Gerber Version 21.0.3 Build 4286 *
%FSLAX35Y35*%
%MOIN*%
%ADD26R,0.03559X0.04937*%
%ADD127R,0.04937X0.06906*%
%ADD74C,0.07693*%
%ADD28R,0.04937X0.03559*%
%ADD128R,0.13992X0.06906*%
%ADD116C,0.28559*%
X0Y0D02*
D02*
D26*
X376199Y200750D03*
X379148Y137750D03*
X382301Y200750D03*
X385250Y137750D03*
X401699Y127750D03*
X407801D03*
X413699D03*
X419801D03*
D02*
D28*
X359250Y152199D03*
Y158301D03*
X427250Y179199D03*
Y185301D03*
D02*
D74*
X244250Y254250D03*
X245750Y281250D03*
X254250Y254250D03*
X255750Y281250D03*
X263750Y109250D03*
X264250Y225250D03*
Y254250D03*
X265750Y281250D03*
X274250Y254250D03*
X275750Y281250D03*
X283750Y109250D03*
X284250Y225250D03*
Y254250D03*
X285750Y281250D03*
X307813Y225750D03*
X308250Y283250D03*
Y293250D03*
X314750Y97750D03*
Y117750D03*
X315687Y225750D03*
X318250Y283250D03*
Y293250D03*
X328250Y283250D03*
Y293250D03*
X338250Y283250D03*
Y293250D03*
X344250Y63250D03*
Y73250D03*
Y83250D03*
Y93250D03*
X348250Y283250D03*
Y293250D03*
X358250Y283250D03*
Y293250D03*
X368250Y283250D03*
Y293250D03*
X369250Y63250D03*
Y73250D03*
Y83250D03*
Y93250D03*
X378250Y283250D03*
Y293250D03*
X388250Y283250D03*
Y293250D03*
X394250Y63250D03*
Y73250D03*
Y83250D03*
Y93250D03*
X398250Y283250D03*
Y293250D03*
X419250Y63250D03*
Y73250D03*
Y83250D03*
Y93250D03*
X433750Y225750D03*
Y235750D03*
Y245750D03*
Y255750D03*
Y265750D03*
X449250Y162250D03*
Y192250D03*
X451750Y67250D03*
Y77250D03*
X459250Y162250D03*
Y192250D03*
X461750Y67250D03*
Y77250D03*
X463750Y225750D03*
Y235750D03*
Y245750D03*
Y255750D03*
Y265750D03*
X469250Y162250D03*
Y192250D03*
X471750Y67250D03*
Y77250D03*
X479250Y162250D03*
Y192250D03*
X481750Y67250D03*
Y77250D03*
X489250Y162250D03*
Y192250D03*
X491750Y67250D03*
Y77250D03*
X493250Y225750D03*
Y235750D03*
Y245750D03*
Y255750D03*
Y265750D03*
X520250Y225750D03*
Y235750D03*
Y245750D03*
Y255750D03*
Y265750D03*
X526750Y67250D03*
Y77250D03*
X536750Y67250D03*
Y77250D03*
X546750Y67250D03*
Y77250D03*
X547750Y225750D03*
Y235750D03*
Y245750D03*
Y255750D03*
Y265750D03*
X553750Y134750D03*
X556750Y67250D03*
Y77250D03*
X563750Y134750D03*
X566750Y67250D03*
Y77250D03*
X573750Y134750D03*
X576750Y225750D03*
Y235750D03*
Y245750D03*
Y255750D03*
Y265750D03*
X578750Y173750D03*
Y183750D03*
D02*
D116*
X212250Y44250D03*
X212750Y291750D03*
X230250Y135750D03*
Y175750D03*
X575250Y43250D03*
X576250Y291250D03*
D02*
D127*
X269195Y54848D03*
X278250D03*
X287305D03*
D02*
D128*
X278250Y79652D03*
X0Y0D02*
M02*
