G04 EasyPC Gerber Version 21.0.3 Build 4286 *
%FSLAX35Y35*%
%MOIN*%
%ADD78C,0.00100*%
%ADD104C,0.00197*%
%ADD16C,0.00500*%
%ADD90C,0.00787*%
%ADD103C,0.00984*%
X0Y0D02*
D02*
D16*
X257070Y106309D02*
G75*
G03Y112191I16680J2941D01*
G01*
X253750*
Y106309*
X257070*
X257570Y222309D02*
G75*
G03Y228191I16680J2941D01*
G01*
X254250*
Y222309*
X257570*
X271581Y189844D02*
Y186094D01*
X269393*
X268768Y186406*
X268456Y187031*
X268768Y187656*
X269393Y187969*
X271581*
X269393D02*
X268456Y189844D01*
X265956D02*
X264706D01*
X265331D02*
Y186094D01*
X265956Y186719*
X260956Y189844D02*
X259706D01*
X260331D02*
Y186094D01*
X260956Y186719*
X269956Y189219D02*
X270268Y189531D01*
X270893Y189844*
X271831*
X272456Y189531*
X272768Y189219*
X273081Y188594*
Y187344*
X272768Y186719*
X272456Y186406*
X271831Y186094*
X270893*
X270268Y186406*
X269956Y186719*
X267143Y189844D02*
X266518Y189531D01*
X265893Y188906*
X265581Y187969*
Y187031*
X265893Y186406*
X266518Y186094*
X267143*
X267768Y186406*
X268081Y187031*
X267768Y187656*
X267143Y187969*
X266518*
X265893Y187656*
X265581Y187031*
X275081Y205719D02*
X264419D01*
Y199781*
X275081*
Y205719*
X286919Y144156D02*
Y147906D01*
X289107*
X289732Y147594*
X290044Y146969*
X289732Y146344*
X289107Y146031*
X286919*
X289107D02*
X290044Y144156D01*
X292544D02*
X293794D01*
X293169D02*
Y147906D01*
X292544Y147281*
X297232Y144469D02*
X297857Y144156D01*
X298482*
X299107Y144469*
X299419Y145094*
Y146969*
X299107Y147594*
X298482Y147906*
X297857*
X297232Y147594*
X296919Y146969*
Y145094*
X297232Y144469*
X299107Y147594*
X288081Y205719D02*
X277419D01*
Y199781*
X288081*
Y205719*
X287562Y88250D02*
X287874Y88563D01*
X288500Y88876*
X289437*
X290062Y88563*
X290374Y88250*
X290687Y87626*
Y86376*
X290374Y85750*
X290062Y85438*
X289437Y85126*
X288500*
X287874Y85438*
X287562Y85750*
X282562Y88250D02*
X282874Y88563D01*
X283500Y88876*
X284437*
X285062Y88563*
X285374Y88250*
X285687Y87626*
Y86376*
X285374Y85750*
X285062Y85438*
X284437Y85126*
X283500*
X282874Y85438*
X282562Y85750*
X279124Y88876D02*
Y85126D01*
X280687Y87626*
X278187*
X290919Y129281D02*
X301581D01*
Y135219*
X290919*
Y129281*
X288062Y204250D02*
X288374Y204563D01*
X289000Y204876*
X289937*
X290562Y204563*
X290874Y204250*
X291187Y203626*
Y202376*
X290874Y201750*
X290562Y201438*
X289937Y201126*
X289000*
X288374Y201438*
X288062Y201750*
X283062Y204250D02*
X283374Y204563D01*
X284000Y204876*
X284937*
X285562Y204563*
X285874Y204250*
X286187Y203626*
Y202376*
X285874Y201750*
X285562Y201438*
X284937Y201126*
X284000*
X283374Y201438*
X283062Y201750*
X281187Y204563D02*
X280562Y204876D01*
X279624*
X279000Y204563*
X278687Y203938*
Y203626*
X279000Y203000*
X279624Y202688*
X281187*
Y201126*
X278687*
X292419Y199781D02*
X303081D01*
Y205719*
X292419*
Y199781*
X297544Y216281D02*
X297232Y215969D01*
X296607Y215656*
X295669*
X295044Y215969*
X294732Y216281*
X294419Y216906*
Y218156*
X294732Y218781*
X295044Y219094*
X295669Y219406*
X296607*
X297232Y219094*
X297544Y218781*
X300357Y217531D02*
X300982D01*
X301607Y217844*
X301919Y218469*
X301607Y219094*
X300982Y219406*
X300357*
X299732Y219094*
X299419Y218469*
X299732Y217844*
X300357Y217531*
X299732Y217219*
X299419Y216594*
X299732Y215969*
X300357Y215656*
X300982*
X301607Y215969*
X301919Y216594*
X301607Y217219*
X300982Y217531*
X301375Y304813D02*
X301063Y304500D01*
X300437Y304187*
X299500*
X298875Y304500*
X298563Y304813*
X298250Y305437*
Y306687*
X298563Y307313*
X298875Y307625*
X299500Y307937*
X300437*
X301063Y307625*
X301375Y307313*
X303250Y304187D02*
Y307937D01*
X306375Y304187*
Y307937*
X308875Y304187D02*
X310125D01*
X309500D02*
Y307937D01*
X308875Y307313*
X298521Y223417D02*
G75*
G03Y228083I13229J2333D01*
G01*
X293796*
Y223417*
X298521*
X314581Y135219D02*
X303919D01*
Y129281*
X314581*
Y135219*
X315581Y119844D02*
Y116094D01*
X313393*
X312768Y116406*
X312456Y117031*
X312768Y117656*
X313393Y117969*
X315581*
X313393D02*
X312456Y119844D01*
X309643D02*
X309018Y119531D01*
X308393Y118906*
X308081Y117969*
Y117031*
X308393Y116406*
X309018Y116094*
X309643*
X310268Y116406*
X310581Y117031*
X310268Y117656*
X309643Y117969*
X309018*
X308393Y117656*
X308081Y117031*
X317691Y91070D02*
G75*
G03X311809I-2941J16680D01*
G01*
Y87750*
X317691*
Y91070*
X335750Y121562D02*
X335437Y121874D01*
X335124Y122500*
Y123437*
X335437Y124062*
X335750Y124374*
X336374Y124687*
X337624*
X338250Y124374*
X338562Y124062*
X338874Y123437*
Y122500*
X338562Y121874*
X338250Y121562*
X335750Y116562D02*
X335437Y116874D01*
X335124Y117500*
Y118437*
X335437Y119062*
X335750Y119374*
X336374Y119687*
X337624*
X338250Y119374*
X338562Y119062*
X338874Y118437*
Y117500*
X338562Y116874*
X338250Y116562*
X335437Y114374D02*
X335124Y113750D01*
Y113124*
X335437Y112500*
X336062Y112187*
X336687Y112500*
X337000Y113124*
Y113750*
Y113124D02*
X337312Y112500D01*
X337937Y112187*
X338562Y112500*
X338874Y113124*
Y113750*
X338562Y114374*
X338250Y303250D02*
X298250D01*
Y273250*
X408250*
Y303250*
X368250*
X358558Y210254D02*
X358870Y210567D01*
X359496Y210880*
X360433*
X361058Y210567*
X361370Y210254*
X361683Y209630*
Y208380*
X361370Y207754*
X361058Y207442*
X360433Y207130*
X359496*
X358870Y207442*
X358558Y207754*
X353558Y210254D02*
X353870Y210567D01*
X354496Y210880*
X355433*
X356058Y210567*
X356370Y210254*
X356683Y209630*
Y208380*
X356370Y207754*
X356058Y207442*
X355433Y207130*
X354496*
X353870Y207442*
X353558Y207754*
X351058Y210880D02*
X349808D01*
X350433D02*
Y207130D01*
X351058Y207754*
X392081Y218719D02*
X381419D01*
Y212781*
X392081*
Y218719*
X393081Y203344D02*
Y199594D01*
X390893*
X390268Y199906*
X389956Y200531*
X390268Y201156*
X390893Y201469*
X393081*
X390893D02*
X389956Y203344D01*
X387456D02*
X386206D01*
X386831D02*
Y199594D01*
X387456Y200219*
X409781Y295081D02*
Y284419D01*
X415719*
Y295081*
X409781*
X418813Y293625D02*
X418500Y293937D01*
X418187Y294563*
Y295500*
X418500Y296125*
X418813Y296437*
X419437Y296750*
X420687*
X421313Y296437*
X421625Y296125*
X421937Y295500*
Y294563*
X421625Y293937*
X421313Y293625*
X418187Y290187D02*
X421937D01*
X419437Y291750*
Y289250*
X497219Y176044D02*
X497531Y175732D01*
X497844Y175107*
Y174169*
X497531Y173544*
X497219Y173232*
X496594Y172919*
X495344*
X494719Y173232*
X494406Y173544*
X494094Y174169*
Y175107*
X494406Y175732*
X494719Y176044*
X497531Y177919D02*
X497844Y178544D01*
Y179482*
X497531Y180107*
X496906Y180419*
X496594*
X495969Y180107*
X495656Y179482*
Y177919*
X494094*
Y180419*
X513219Y173919D02*
Y184581D01*
X507281*
Y173919*
X513219*
X542581Y196219D02*
X531919D01*
Y190281*
X542581*
Y196219*
X543581Y180844D02*
Y177094D01*
X541393*
X540768Y177406*
X540456Y178031*
X540768Y178656*
X541393Y178969*
X543581*
X541393D02*
X540456Y180844D01*
X537956D02*
X536706D01*
X537331D02*
Y177094D01*
X537956Y177719*
X533581Y179906D02*
X533268Y179281D01*
X532643Y178969*
X532018*
X531393Y179281*
X531081Y179906*
X531393Y180531*
X532018Y180844*
X532643*
X533268Y180531*
X533581Y179906*
Y178969*
X533268Y178031*
X532643Y177406*
X532018Y177094*
X545781Y184081D02*
Y173419D01*
X551719*
Y184081*
X545781*
X561156Y185081D02*
X564906D01*
Y182893*
X564594Y182268*
X563969Y181956*
X563344Y182268*
X563031Y182893*
Y185081*
Y182893D02*
X561156Y181956D01*
Y177581D02*
Y180081D01*
X563344Y177893*
X563969Y177581*
X564594Y177893*
X564906Y178518*
Y179456*
X564594Y180081*
D02*
D78*
X329625Y70500D02*
X329781Y70344D01*
Y70031*
Y69719*
X329625Y69406*
X329313Y69250*
X328844*
X328687Y69406*
X328531Y69719*
Y70031*
X328687Y70344*
X328844Y70500*
X329000*
X329156Y70344*
X329313Y70031*
Y69719*
X329156Y69406*
X329000Y69250*
X329781Y71750D02*
X328531D01*
X329000D02*
X328687Y71906D01*
X328531Y72219*
Y72531*
X328687Y72844*
X329000Y73000*
X329781*
X328687Y75500D02*
X328531Y75187D01*
Y74719*
X328687Y74406*
X329000Y74250*
X329313*
X329625Y74406*
X329781Y74719*
Y75187*
X329625Y75500*
X329313Y76750D02*
X329625Y76906D01*
X329781Y77219*
Y77531*
X329625Y77844*
X329313Y78000*
X329000*
X328687Y77844*
X328531Y77531*
Y77219*
X328687Y76906*
X329000Y76750*
X329313*
X329000Y80500D02*
X328687Y80344D01*
X328531Y80031*
Y79719*
X328687Y79406*
X329000Y79250*
X329313*
X329625Y79406*
X329781Y79719*
Y80031*
X329625Y80344*
X329313Y80500*
X329781D02*
X327906D01*
X329625Y83000D02*
X329781Y82844D01*
Y82531*
Y82219*
X329625Y81906*
X329313Y81750*
X328844*
X328687Y81906*
X328531Y82219*
Y82531*
X328687Y82844*
X328844Y83000*
X329000*
X329156Y82844*
X329313Y82531*
Y82219*
X329156Y81906*
X329000Y81750*
X329781Y84250D02*
X328531D01*
X329000D02*
X328687Y84406D01*
X328531Y84719*
Y85031*
X328687Y85344*
X329781Y86750D02*
X327906Y87531D01*
X329781Y88313*
X329000Y87063D02*
Y88000D01*
X356625Y72000D02*
X356781Y71844D01*
Y71531*
Y71219*
X356625Y70906*
X356313Y70750*
X355844*
X355687Y70906*
X355531Y71219*
Y71531*
X355687Y71844*
X355844Y72000*
X356000*
X356156Y71844*
X356313Y71531*
Y71219*
X356156Y70906*
X356000Y70750*
X356781Y73250D02*
X355531D01*
X356000D02*
X355687Y73406D01*
X355531Y73719*
Y74031*
X355687Y74344*
X356000Y74500*
X356781*
X355687Y77000D02*
X355531Y76687D01*
Y76219*
X355687Y75906*
X356000Y75750*
X356313*
X356625Y75906*
X356781Y76219*
Y76687*
X356625Y77000*
X356313Y78250D02*
X356625Y78406D01*
X356781Y78719*
Y79031*
X356625Y79344*
X356313Y79500*
X356000*
X355687Y79344*
X355531Y79031*
Y78719*
X355687Y78406*
X356000Y78250*
X356313*
X356000Y82000D02*
X355687Y81844D01*
X355531Y81531*
Y81219*
X355687Y80906*
X356000Y80750*
X356313*
X356625Y80906*
X356781Y81219*
Y81531*
X356625Y81844*
X356313Y82000*
X356781D02*
X354906D01*
X356625Y84500D02*
X356781Y84344D01*
Y84031*
Y83719*
X356625Y83406*
X356313Y83250*
X355844*
X355687Y83406*
X355531Y83719*
Y84031*
X355687Y84344*
X355844Y84500*
X356000*
X356156Y84344*
X356313Y84031*
Y83719*
X356156Y83406*
X356000Y83250*
X356781Y85750D02*
X355531D01*
X356000D02*
X355687Y85906D01*
X355531Y86219*
Y86531*
X355687Y86844*
X355844Y89344D02*
X356000Y89656D01*
X356313Y89813*
X356625Y89656*
X356781Y89344*
Y88250*
X354906*
Y89344*
X355063Y89656*
X355375Y89813*
X355687Y89656*
X355844Y89344*
Y88250*
X383625Y73500D02*
X383781Y73344D01*
Y73031*
Y72719*
X383625Y72406*
X383313Y72250*
X382844*
X382687Y72406*
X382531Y72719*
Y73031*
X382687Y73344*
X382844Y73500*
X383000*
X383156Y73344*
X383313Y73031*
Y72719*
X383156Y72406*
X383000Y72250*
X383781Y74750D02*
X382531D01*
X383000D02*
X382687Y74906D01*
X382531Y75219*
Y75531*
X382687Y75844*
X383000Y76000*
X383781*
X382687Y78500D02*
X382531Y78187D01*
Y77719*
X382687Y77406*
X383000Y77250*
X383313*
X383625Y77406*
X383781Y77719*
Y78187*
X383625Y78500*
X383313Y79750D02*
X383625Y79906D01*
X383781Y80219*
Y80531*
X383625Y80844*
X383313Y81000*
X383000*
X382687Y80844*
X382531Y80531*
Y80219*
X382687Y79906*
X383000Y79750*
X383313*
X383000Y83500D02*
X382687Y83344D01*
X382531Y83031*
Y82719*
X382687Y82406*
X383000Y82250*
X383313*
X383625Y82406*
X383781Y82719*
Y83031*
X383625Y83344*
X383313Y83500*
X383781D02*
X381906D01*
X383625Y86000D02*
X383781Y85844D01*
Y85531*
Y85219*
X383625Y84906*
X383313Y84750*
X382844*
X382687Y84906*
X382531Y85219*
Y85531*
X382687Y85844*
X382844Y86000*
X383000*
X383156Y85844*
X383313Y85531*
Y85219*
X383156Y84906*
X383000Y84750*
X383781Y87250D02*
X382531D01*
X383000D02*
X382687Y87406D01*
X382531Y87719*
Y88031*
X382687Y88344*
X383469Y91313D02*
X383625Y91156D01*
X383781Y90844*
Y90375*
X383625Y90063*
X383469Y89906*
X383156Y89750*
X382531*
X382219Y89906*
X382063Y90063*
X381906Y90375*
Y90844*
X382063Y91156*
X382219Y91313*
X407125Y73500D02*
X407281Y73344D01*
Y73031*
Y72719*
X407125Y72406*
X406813Y72250*
X406344*
X406187Y72406*
X406031Y72719*
Y73031*
X406187Y73344*
X406344Y73500*
X406500*
X406656Y73344*
X406813Y73031*
Y72719*
X406656Y72406*
X406500Y72250*
X407281Y74750D02*
X406031D01*
X406500D02*
X406187Y74906D01*
X406031Y75219*
Y75531*
X406187Y75844*
X406500Y76000*
X407281*
X406187Y78500D02*
X406031Y78187D01*
Y77719*
X406187Y77406*
X406500Y77250*
X406813*
X407125Y77406*
X407281Y77719*
Y78187*
X407125Y78500*
X406813Y79750D02*
X407125Y79906D01*
X407281Y80219*
Y80531*
X407125Y80844*
X406813Y81000*
X406500*
X406187Y80844*
X406031Y80531*
Y80219*
X406187Y79906*
X406500Y79750*
X406813*
X406500Y83500D02*
X406187Y83344D01*
X406031Y83031*
Y82719*
X406187Y82406*
X406500Y82250*
X406813*
X407125Y82406*
X407281Y82719*
Y83031*
X407125Y83344*
X406813Y83500*
X407281D02*
X405406D01*
X407125Y86000D02*
X407281Y85844D01*
Y85531*
Y85219*
X407125Y84906*
X406813Y84750*
X406344*
X406187Y84906*
X406031Y85219*
Y85531*
X406187Y85844*
X406344Y86000*
X406500*
X406656Y85844*
X406813Y85531*
Y85219*
X406656Y84906*
X406500Y84750*
X407281Y87250D02*
X406031D01*
X406500D02*
X406187Y87406D01*
X406031Y87719*
Y88031*
X406187Y88344*
X407281Y89750D02*
X405406D01*
Y90687*
X405563Y91000*
X405719Y91156*
X406031Y91313*
X406656*
X406969Y91156*
X407125Y91000*
X407281Y90687*
Y89750*
X420781Y238250D02*
X419531D01*
X419687D02*
X419531Y238406D01*
Y238719*
X419687Y238875*
X420156*
X419687D02*
X419531Y239031D01*
Y239344*
X419687Y239500*
X420781*
X420313Y240750D02*
X420625Y240906D01*
X420781Y241219*
Y241531*
X420625Y241844*
X420313Y242000*
X420000*
X419687Y241844*
X419531Y241531*
Y241219*
X419687Y240906*
X420000Y240750*
X420313*
X419531Y243563D02*
Y244187D01*
X419219Y243875D02*
X420625D01*
X420781Y244031*
Y244187*
X420625Y244344*
X420313Y245750D02*
X420625Y245906D01*
X420781Y246219*
Y246531*
X420625Y246844*
X420313Y247000*
X420000*
X419687Y246844*
X419531Y246531*
Y246219*
X419687Y245906*
X420000Y245750*
X420313*
X420781Y248250D02*
X419531D01*
X420000D02*
X419687Y248406D01*
X419531Y248719*
Y249031*
X419687Y249344*
X420781Y250750D02*
X418906Y251531D01*
X420781Y252313*
X420000Y251063D02*
Y252000D01*
X450281Y238250D02*
X449031D01*
X449187D02*
X449031Y238406D01*
Y238719*
X449187Y238875*
X449656*
X449187D02*
X449031Y239031D01*
Y239344*
X449187Y239500*
X450281*
X449813Y240750D02*
X450125Y240906D01*
X450281Y241219*
Y241531*
X450125Y241844*
X449813Y242000*
X449500*
X449187Y241844*
X449031Y241531*
Y241219*
X449187Y240906*
X449500Y240750*
X449813*
X449031Y243563D02*
Y244187D01*
X448719Y243875D02*
X450125D01*
X450281Y244031*
Y244187*
X450125Y244344*
X449813Y245750D02*
X450125Y245906D01*
X450281Y246219*
Y246531*
X450125Y246844*
X449813Y247000*
X449500*
X449187Y246844*
X449031Y246531*
Y246219*
X449187Y245906*
X449500Y245750*
X449813*
X450281Y248250D02*
X449031D01*
X449500D02*
X449187Y248406D01*
X449031Y248719*
Y249031*
X449187Y249344*
X449344Y251844D02*
X449500Y252156D01*
X449813Y252313*
X450125Y252156*
X450281Y251844*
Y250750*
X448406*
Y251844*
X448563Y252156*
X448875Y252313*
X449187Y252156*
X449344Y251844*
Y250750*
X465250Y49875D02*
X465563Y49719D01*
X466187*
X466500Y49875*
Y50187*
X466187Y50344*
X465563*
X465250Y50500*
Y50813*
X465563Y50969*
X466187*
X466500Y50813*
X469000Y49875D02*
X468844Y49719D01*
X468531*
X468219*
X467906Y49875*
X467750Y50187*
Y50656*
X467906Y50813*
X468219Y50969*
X468531*
X468844Y50813*
X469000Y50656*
Y50500*
X468844Y50344*
X468531Y50187*
X468219*
X467906Y50344*
X467750Y50500*
X470250Y49719D02*
Y50969D01*
Y50500D02*
X470406Y50813D01*
X470719Y50969*
X471031*
X471344Y50813*
X471500Y50500*
Y49719*
X472750Y49875D02*
X473063Y49719D01*
X473687*
X474000Y49875*
Y50187*
X473687Y50344*
X473063*
X472750Y50500*
Y50813*
X473063Y50969*
X473687*
X474000Y50813*
X475250Y50187D02*
X475406Y49875D01*
X475719Y49719*
X476031*
X476344Y49875*
X476500Y50187*
Y50500*
X476344Y50813*
X476031Y50969*
X475719*
X475406Y50813*
X475250Y50500*
Y50187*
X477750Y49719D02*
Y50969D01*
Y50500D02*
X477906Y50813D01*
X478219Y50969*
X478531*
X478844Y50813*
X479281Y239250D02*
X478031D01*
X478187D02*
X478031Y239406D01*
Y239719*
X478187Y239875*
X478656*
X478187D02*
X478031Y240031D01*
Y240344*
X478187Y240500*
X479281*
X478813Y241750D02*
X479125Y241906D01*
X479281Y242219*
Y242531*
X479125Y242844*
X478813Y243000*
X478500*
X478187Y242844*
X478031Y242531*
Y242219*
X478187Y241906*
X478500Y241750*
X478813*
X478031Y244563D02*
Y245187D01*
X477719Y244875D02*
X479125D01*
X479281Y245031*
Y245187*
X479125Y245344*
X478813Y246750D02*
X479125Y246906D01*
X479281Y247219*
Y247531*
X479125Y247844*
X478813Y248000*
X478500*
X478187Y247844*
X478031Y247531*
Y247219*
X478187Y246906*
X478500Y246750*
X478813*
X479281Y249250D02*
X478031D01*
X478500D02*
X478187Y249406D01*
X478031Y249719*
Y250031*
X478187Y250344*
X478969Y253313D02*
X479125Y253156D01*
X479281Y252844*
Y252375*
X479125Y252063*
X478969Y251906*
X478656Y251750*
X478031*
X477719Y251906*
X477563Y252063*
X477406Y252375*
Y252844*
X477563Y253156*
X477719Y253313*
X507281Y240250D02*
X506031D01*
X506187D02*
X506031Y240406D01*
Y240719*
X506187Y240875*
X506656*
X506187D02*
X506031Y241031D01*
Y241344*
X506187Y241500*
X507281*
X506813Y242750D02*
X507125Y242906D01*
X507281Y243219*
Y243531*
X507125Y243844*
X506813Y244000*
X506500*
X506187Y243844*
X506031Y243531*
Y243219*
X506187Y242906*
X506500Y242750*
X506813*
X506031Y245563D02*
Y246187D01*
X505719Y245875D02*
X507125D01*
X507281Y246031*
Y246187*
X507125Y246344*
X506813Y247750D02*
X507125Y247906D01*
X507281Y248219*
Y248531*
X507125Y248844*
X506813Y249000*
X506500*
X506187Y248844*
X506031Y248531*
Y248219*
X506187Y247906*
X506500Y247750*
X506813*
X507281Y250250D02*
X506031D01*
X506500D02*
X506187Y250406D01*
X506031Y250719*
Y251031*
X506187Y251344*
X507281Y252750D02*
X505406D01*
Y253687*
X505563Y254000*
X505719Y254156*
X506031Y254313*
X506656*
X506969Y254156*
X507125Y254000*
X507281Y253687*
Y252750*
X535781Y240250D02*
X534531D01*
X534687D02*
X534531Y240406D01*
Y240719*
X534687Y240875*
X535156*
X534687D02*
X534531Y241031D01*
Y241344*
X534687Y241500*
X535781*
X535313Y242750D02*
X535625Y242906D01*
X535781Y243219*
Y243531*
X535625Y243844*
X535313Y244000*
X535000*
X534687Y243844*
X534531Y243531*
Y243219*
X534687Y242906*
X535000Y242750*
X535313*
X534531Y245563D02*
Y246187D01*
X534219Y245875D02*
X535625D01*
X535781Y246031*
Y246187*
X535625Y246344*
X535313Y247750D02*
X535625Y247906D01*
X535781Y248219*
Y248531*
X535625Y248844*
X535313Y249000*
X535000*
X534687Y248844*
X534531Y248531*
Y248219*
X534687Y247906*
X535000Y247750*
X535313*
X535781Y250250D02*
X534531D01*
X535000D02*
X534687Y250406D01*
X534531Y250719*
Y251031*
X534687Y251344*
X535781Y252750D02*
X533906D01*
Y254313*
X534844Y254000D02*
Y252750D01*
X535781D02*
Y254313D01*
X543750Y50813D02*
X544063Y50969D01*
X544531*
X544844Y50813*
X545000Y50500*
Y50031*
X544844Y49875*
X544531Y49719*
X544219*
X543906Y49875*
X543750Y50031*
Y50187*
X543906Y50344*
X544219Y50500*
X544531*
X544844Y50344*
X545000Y50187*
Y50031D02*
Y49719D01*
X546875D02*
Y50969D01*
Y51437D02*
X548750Y49719*
Y50969D01*
Y50500D02*
X548906Y50813D01*
X549219Y50969*
X549531*
X549844Y50813*
X563781Y241250D02*
X562531D01*
X562687D02*
X562531Y241406D01*
Y241719*
X562687Y241875*
X563156*
X562687D02*
X562531Y242031D01*
Y242344*
X562687Y242500*
X563781*
X563313Y243750D02*
X563625Y243906D01*
X563781Y244219*
Y244531*
X563625Y244844*
X563313Y245000*
X563000*
X562687Y244844*
X562531Y244531*
Y244219*
X562687Y243906*
X563000Y243750*
X563313*
X562531Y246563D02*
Y247187D01*
X562219Y246875D02*
X563625D01*
X563781Y247031*
Y247187*
X563625Y247344*
X563313Y248750D02*
X563625Y248906D01*
X563781Y249219*
Y249531*
X563625Y249844*
X563313Y250000*
X563000*
X562687Y249844*
X562531Y249531*
Y249219*
X562687Y248906*
X563000Y248750*
X563313*
X563781Y251250D02*
X562531D01*
X563000D02*
X562687Y251406D01*
X562531Y251719*
Y252031*
X562687Y252344*
X563781Y253750D02*
X561906D01*
Y255313*
X562844Y255000D02*
Y253750D01*
X578813Y159531D02*
X578656Y159375D01*
X578344Y159219*
X577875*
X577563Y159375*
X577406Y159531*
X577250Y159844*
Y160469*
X577406Y160781*
X577563Y160937*
X577875Y161094*
X578344*
X578656Y160937*
X578813Y160781*
X579750Y159219D02*
X580531Y161094D01*
X581313Y159219*
X580063Y160000D02*
X581000D01*
X582250Y159219D02*
Y161094D01*
X583813Y159219*
Y161094*
X584750Y159219D02*
X586313D01*
X587250Y161094D02*
Y159219D01*
X588813*
X585313Y198531D02*
X585156Y198375D01*
X584844Y198219*
X584375*
X584063Y198375*
X583906Y198531*
X583750Y198844*
Y199469*
X583906Y199781*
X584063Y199937*
X584375Y200094*
X584844*
X585156Y199937*
X585313Y199781*
X586250Y198219D02*
X587031Y200094D01*
X587813Y198219*
X586563Y199000D02*
X587500D01*
X588750Y198219D02*
Y200094D01*
X590313Y198219*
Y200094*
X591250Y198219D02*
X592813D01*
X593750D02*
Y200094D01*
Y199156D02*
X595313D01*
Y198219D02*
Y200094D01*
D02*
D90*
X378943Y189057D02*
X415557D01*
Y152443*
X378943*
Y189057*
X516167Y188907D02*
X522073D01*
X523451Y188396D02*
X536049D01*
Y169104*
X523451*
Y188396*
D02*
D103*
X373234Y188467D02*
G75*
G02X372250I-492D01*
G01*
X373234D02*
G75*
G02X372250I-492D01*
G01*
G75*
G02X373234I492*
G01*
D02*
D104*
X515183Y189380D02*
X544317D01*
Y168120*
X515183*
Y189380*
X0Y0D02*
M02*
