G04 EasyPC Gerber Version 21.0.3 Build 4286 *
%FSLAX35Y35*%
%MOIN*%
%ADD118R,0.02181X0.06807*%
%ADD26R,0.03559X0.04937*%
%ADD121R,0.05724X0.12811*%
%ADD123R,0.07969X0.17024*%
%ADD74C,0.07693*%
%ADD117R,0.06807X0.02181*%
%ADD28R,0.04937X0.03559*%
%ADD124R,0.06906X0.03559*%
%ADD120R,0.06906X0.05724*%
%ADD119R,0.12811X0.05724*%
%ADD116C,0.28559*%
%ADD122R,0.17024X0.07969*%
X0Y0D02*
D02*
D26*
X266699Y202750D03*
X272801D03*
X279699D03*
X285801D03*
X293199Y132250D03*
X294699Y202750D03*
X299301Y132250D03*
X300801Y202750D03*
X306199Y132250D03*
X312301D03*
X383699Y215750D03*
X389801D03*
X534199Y193250D03*
X540301D03*
D02*
D28*
X412750Y286699D03*
Y292801D03*
X510250Y176199D03*
Y182301D03*
X548750Y175699D03*
Y181801D03*
D02*
D74*
X244250Y254250D03*
X245750Y281250D03*
X254250Y254250D03*
X255750Y281250D03*
X263750Y109250D03*
X264250Y225250D03*
Y254250D03*
X265750Y281250D03*
X274250Y254250D03*
X275750Y281250D03*
X283750Y109250D03*
X284250Y225250D03*
Y254250D03*
X285750Y281250D03*
X307813Y225750D03*
X308250Y283250D03*
Y293250D03*
X314750Y97750D03*
Y117750D03*
X315687Y225750D03*
X318250Y283250D03*
Y293250D03*
X328250Y283250D03*
Y293250D03*
X338250Y283250D03*
Y293250D03*
X344250Y63250D03*
Y73250D03*
Y83250D03*
Y93250D03*
X348250Y283250D03*
Y293250D03*
X358250Y283250D03*
Y293250D03*
X368250Y283250D03*
Y293250D03*
X369250Y63250D03*
Y73250D03*
Y83250D03*
Y93250D03*
X378250Y283250D03*
Y293250D03*
X388250Y283250D03*
Y293250D03*
X394250Y63250D03*
Y73250D03*
Y83250D03*
Y93250D03*
X398250Y283250D03*
Y293250D03*
X419250Y63250D03*
Y73250D03*
Y83250D03*
Y93250D03*
X433750Y225750D03*
Y235750D03*
Y245750D03*
Y255750D03*
Y265750D03*
X449250Y162250D03*
Y192250D03*
X451750Y67250D03*
Y77250D03*
X459250Y162250D03*
Y192250D03*
X461750Y67250D03*
Y77250D03*
X463750Y225750D03*
Y235750D03*
Y245750D03*
Y255750D03*
Y265750D03*
X469250Y162250D03*
Y192250D03*
X471750Y67250D03*
Y77250D03*
X479250Y162250D03*
Y192250D03*
X481750Y67250D03*
Y77250D03*
X489250Y162250D03*
Y192250D03*
X491750Y67250D03*
Y77250D03*
X493250Y225750D03*
Y235750D03*
Y245750D03*
Y255750D03*
Y265750D03*
X520250Y225750D03*
Y235750D03*
Y245750D03*
Y255750D03*
Y265750D03*
X526750Y67250D03*
Y77250D03*
X536750Y67250D03*
Y77250D03*
X546750Y67250D03*
Y77250D03*
X547750Y225750D03*
Y235750D03*
Y245750D03*
Y255750D03*
Y265750D03*
X553750Y134750D03*
X556750Y67250D03*
Y77250D03*
X563750Y134750D03*
X566750Y67250D03*
Y77250D03*
X573750Y134750D03*
X576750Y225750D03*
Y235750D03*
Y245750D03*
Y255750D03*
Y265750D03*
D02*
D116*
X212250Y44250D03*
X212750Y291750D03*
X230250Y135750D03*
Y175750D03*
X575250Y43250D03*
X576250Y291250D03*
D02*
D117*
X374659Y155986D03*
Y157955D03*
Y159923D03*
Y161892D03*
Y163860D03*
Y165829D03*
Y167797D03*
Y169766D03*
Y171734D03*
Y173703D03*
Y175671D03*
Y177640D03*
Y179608D03*
Y181577D03*
Y183545D03*
Y185514D03*
X419841Y155986D03*
Y157955D03*
Y159923D03*
Y161892D03*
Y163860D03*
Y165829D03*
Y167797D03*
Y169766D03*
Y171734D03*
Y173703D03*
Y175671D03*
Y177640D03*
Y179608D03*
Y181577D03*
Y183545D03*
Y185514D03*
D02*
D118*
X382486Y148159D03*
Y193341D03*
X384455Y148159D03*
Y193341D03*
X386423Y148159D03*
Y193341D03*
X388392Y148159D03*
Y193341D03*
X390360Y148159D03*
Y193341D03*
X392329Y148159D03*
Y193341D03*
X394297Y148159D03*
Y193341D03*
X396266Y148159D03*
Y193341D03*
X398234Y148159D03*
Y193341D03*
X400203Y148159D03*
Y193341D03*
X402171Y148159D03*
Y193341D03*
X404140Y148159D03*
Y193341D03*
X406108Y148159D03*
Y193341D03*
X408077Y148159D03*
Y193341D03*
X410045Y148159D03*
Y193341D03*
X412014Y148159D03*
Y193341D03*
D02*
D119*
X263589Y149522D03*
Y185348D03*
X263628Y158419D03*
Y167396D03*
X307604Y149758D03*
X307644Y185703D03*
X307683Y167789D03*
D02*
D120*
X310587Y158774D03*
D02*
D121*
X276581Y189600D03*
X276620Y145545D03*
X285518Y189561D03*
X285636Y145545D03*
X294455Y145506D03*
X294494Y189640D03*
D02*
D122*
X272093Y185585D03*
X290085Y185594D03*
D02*
D123*
X303579Y181067D03*
D02*
D124*
X519120Y171250D03*
Y176250D03*
Y181250D03*
Y186250D03*
X540380Y171250D03*
Y176250D03*
Y181250D03*
Y186250D03*
X0Y0D02*
M02*
